<svg width="186" height="30" fill="none" xmlns="http://www.w3.org/2000/svg"><path d="M17.814 1C7.975 1 0 8.98 0 18.822v7.638a2.543 2.543 0 002.543 2.543 2.55 2.55 0 002.551-2.543v-7.638a2.543 2.543 0 115.086 0v7.638a2.543 2.543 0 002.544 2.543 2.543 2.543 0 002.547-2.543v-7.638a2.548 2.548 0 015.095 0v7.638a2.543 2.543 0 105.086 0v-7.638a2.545 2.545 0 012.551-2.547 2.543 2.543 0 012.543 2.547v7.638a2.544 2.544 0 002.547 2.543 2.543 2.543 0 002.543-2.543v-7.638C35.636 8.98 27.657 1 17.814 1zm21.822.003h4.522v11.89l12.066-11.89h6.011L51.476 11.41l11.362 17.583h-6.012L48.022 14.75l-3.864 3.739v10.508h-4.522V1.003zm25.66 0h4.471V5.84c.364-.942 1.264-2.085 2.692-3.438 1.428-1.348 3.077-2.026 4.94-2.026.088 0 .235.008.444.025.21.017.565.05 1.072.105v4.97a6.461 6.461 0 00-.77-.105 10.923 10.923 0 00-.77-.025c-2.37 0-4.192.761-5.464 2.285C70.638 9.154 70 10.91 70 12.897V29h-4.705V1.003zM96.44 12.056c1.08-.139 1.804-.59 2.168-1.357.21-.418.314-1.021.314-1.808 0-1.608-.57-2.776-1.708-3.505-1.139-.724-2.767-1.088-4.89-1.088-2.453 0-4.19.666-5.216 1.997-.574.737-.946 1.83-1.122 3.282h-4.392c.088-3.458 1.206-5.865 3.354-7.222 2.151-1.352 4.643-2.03 7.481-2.03 3.29 0 5.962.628 8.013 1.88 2.039 1.256 3.056 3.207 3.056 5.857v16.126c0 .49.101.88.302 1.177.196.297.619.443 1.268.443.21 0 .444-.012.708-.037.259-.025.54-.067.837-.117v3.474c-.733.21-1.289.34-1.67.394-.386.05-.905.08-1.57.08-1.621 0-2.797-.574-3.53-1.725-.38-.612-.653-1.474-.808-2.588-.958 1.256-2.332 2.345-4.128 3.266-1.796.925-3.772 1.386-5.932 1.386-2.596 0-4.718-.787-6.363-2.362-1.646-1.574-2.47-3.546-2.47-5.911 0-2.591.812-4.601 2.432-6.029 1.62-1.427 3.747-2.306 6.376-2.637l7.49-.946zm-9.906 12.71c.992.783 2.169 1.172 3.53 1.172 1.653 0 3.257-.38 4.81-1.147 2.612-1.268 3.919-3.35 3.919-6.238v-3.785c-.574.369-1.315.675-2.22.917-.904.243-1.791.419-2.658.524l-2.843.364c-1.703.226-2.984.582-3.843 1.067-1.457.817-2.181 2.123-2.181 3.91-.004 1.366.494 2.433 1.486 3.216zm27.661-23.763v11.89l12.066-11.89h6.007l-10.759 10.408 11.362 17.583h-6.012l-8.804-14.242-3.864 3.738V29h-4.522V1.003h4.526zm37.867.77c1.855.934 3.266 2.14 4.233 3.622.934 1.41 1.557 3.056 1.871 4.94.277 1.29.415 3.345.415 6.167h-20.359c.088 2.847.753 5.132 1.997 6.853 1.243 1.72 3.173 2.583 5.781 2.583 2.437 0 4.384-.812 5.836-2.44a8.327 8.327 0 001.729-3.283h4.627c-.122 1.03-.528 2.173-1.215 3.437-.686 1.265-1.456 2.295-2.302 3.098-1.419 1.395-3.174 2.337-5.267 2.822-1.122.28-2.395.419-3.814.419-3.462 0-6.397-1.269-8.804-3.802-2.407-2.537-3.609-6.083-3.609-10.65 0-4.497 1.21-8.147 3.638-10.952 2.424-2.805 5.593-4.208 9.508-4.208 1.967-.004 3.881.465 5.735 1.394zm1.683 10.994c-.188-2.039-.632-3.667-1.323-4.885-1.276-2.265-3.412-3.4-6.401-3.4-2.143 0-3.939.779-5.388 2.34-1.453 1.562-2.219 3.542-2.307 5.945h15.419zm13.439-11.764v3.973c1.323-1.637 2.726-2.813 4.208-3.53 1.482-.715 3.127-1.07 4.94-1.07 3.973 0 6.657 1.385 8.051 4.156.766 1.516 1.151 3.684 1.151 6.51V29h-4.785V11.356c0-1.708-.251-3.085-.758-4.128-.837-1.741-2.353-2.612-4.547-2.612-1.113 0-2.03.113-2.746.34-1.29.384-2.42 1.15-3.4 2.298-.782.925-1.293 1.875-1.528 2.863-.234.988-.351 2.39-.351 4.22V29h-4.706V1.003h4.471z" fill="#fff"/></svg>