<svg width="179" height="50" fill="none" xmlns="http://www.w3.org/2000/svg"><path d="M59.453 25.562l.037 2.943c-.099 1.86-.322 3.427-.67 4.701-.347 1.275-1.029 2.434-2.046 3.479-1.686 1.733-4.142 2.599-7.366 2.599-3.795 0-6.4-.51-7.814-1.529-1.413-1.045-2.12-2.918-2.12-5.619V12.07H49.78c2.976 0 5.308.866 6.994 2.599 1.364 1.402 2.17 3.109 2.419 5.122.173 1.427.26 3.35.26 5.772zm-6.288 7.3c.472-.586.77-1.388.893-2.408.15-1.044.224-2.663.224-4.854 0-2.192-.075-3.771-.224-4.74-.124-.994-.421-1.784-.893-2.37-.893-1.12-2.182-1.681-3.87-1.681h-4.65v15.06c0 1.019.335 1.72 1.005 2.102.67.382 1.86.573 3.572.573 1.736 0 3.05-.56 3.943-1.681zm17.039 6.422h-5.172V12.069h5.172v27.215zm52.003 0h-5.172V28.276h-9.71v11.008h-5.172V12.069h5.172v11.505h9.71V12.07h5.172v27.215zm-25.099 0h-5.99l-5.172-10.091h-3.72v10.091h-5.172V17.917c0-2.039.459-3.517 1.376-4.434.918-.943 2.456-1.414 4.614-1.414h4.39c2.63 0 4.713.828 6.25 2.484 1.563 1.631 2.345 3.708 2.345 6.23 0 1.836-.472 3.428-1.414 4.779-.918 1.325-2.059 2.242-3.423 2.752l5.916 10.97zM87.099 24.759c1.092 0 1.985-.382 2.68-1.147.719-.79 1.078-1.758 1.078-2.905 0-1.172-.347-2.115-1.042-2.828-.67-.714-1.575-1.07-2.716-1.07h-2.567c-1.538 0-2.307.802-2.307 2.408v5.542H87.1zm62.275 14.525h-5.395l-1.489-4.701h-8.892l-1.451 4.701h-5.395l8.483-24.922c.372-.866.782-1.465 1.228-1.796.471-.332 1.042-.497 1.712-.497.669 0 1.203.153 1.599.458.422.306.794.918 1.117 1.835l8.483 24.922zM141.3 30.11l-3.125-10.779-3.274 10.78h6.399zm32.312-7.071l-4.762 10.32c-.695 1.376-1.563 2.064-2.605 2.064-1.017 0-1.872-.726-2.567-2.178l-4.837-10.206v16.245h-5.171V12.069h5.097l7.478 15.71 7.441-15.71h5.098v27.215h-5.172V23.039z" fill="#fff"/><path d="M21.936 0c8.164 22.778-3.927 41.068-11.538 50C14.486 30.38 5.596 16.447 0 10.208c0 0 7.163-.85 12.31-3.402C17.46 4.253 21.937 0 21.937 0z" fill="url(#paint0_linear)"/><defs><linearGradient id="paint0_linear" x1="10.578" y1="50" x2="41.658" y2="23.789" gradientUnits="userSpaceOnUse"><stop stop-color="#F6CE69"/><stop offset=".203" stop-color="#D99A26"/><stop offset=".253" stop-color="#C68B23"/><stop offset=".319" stop-color="#B57C20"/><stop offset=".39" stop-color="#AA741F"/><stop offset=".473" stop-color="#A7711E"/><stop offset=".523" stop-color="#B0781F"/><stop offset=".604" stop-color="#C78B23"/><stop offset=".654" stop-color="#D99A26"/><stop offset=".677" stop-color="#DEA732"/><stop offset=".756" stop-color="#F0D258"/><stop offset=".819" stop-color="#FBED6F"/><stop offset=".855" stop-color="#FFF778"/><stop offset=".88" stop-color="#FDF274"/><stop offset=".911" stop-color="#F8E368"/><stop offset=".945" stop-color="#EFCA53"/><stop offset=".98" stop-color="#E3A837"/><stop offset="1" stop-color="#DB9125"/></linearGradient></defs></svg>